HIERARCHY
ROOT Hips
{
 OFFSET 0.000000 0.000000 0.000000
 CHANNELS 6 Xposition Yposition Zposition Yrotation Xrotation Zrotation
 JOINT Chest
 {
  OFFSET 0.000000 10.354800 0.006500
  CHANNELS 3 Yrotation Xrotation Zrotation
  JOINT Chest2
  {
   OFFSET 0.000000 10.435800 -0.013200
   CHANNELS 3 Yrotation Xrotation Zrotation
   JOINT Chest3
   {
    OFFSET 0.000000 10.393700 0.000000
    CHANNELS 3 Yrotation Xrotation Zrotation
    JOINT Chest4
    {
     OFFSET 0.000000 10.383100 0.000000
     CHANNELS 3 Yrotation Xrotation Zrotation
     JOINT Neck
     {
      OFFSET 0.000000 15.694000 0.000000
      CHANNELS 3 Yrotation Xrotation Zrotation
      JOINT Head
      {
       OFFSET 0.000000 9.711000 -0.028000
       CHANNELS 3 Yrotation Xrotation Zrotation
       End Site
       {
        OFFSET 0.000000 18.578700 -0.014800
       }
      }
     }
     JOINT RightCollar
     {
      OFFSET -3.157200 10.367500 0.000000
      CHANNELS 3 Yrotation Xrotation Zrotation
      JOINT RightShoulder
      {
       OFFSET -14.482500 0.000000 0.000000
       CHANNELS 3 Yrotation Xrotation Zrotation
       JOINT RightElbow
       {
        OFFSET 0.000000 -31.707800 0.000000
        CHANNELS 3 Yrotation Xrotation Zrotation
        JOINT RightWrist
        {
         OFFSET 0.000000 -25.659300 0.000000
         CHANNELS 3 Yrotation Xrotation Zrotation
         End Site
         {
          OFFSET 0.000000 -18.994300 0.000000
         }
        }
       }
      }
     }
     JOINT LeftCollar
     {
      OFFSET 3.157200 10.367500 0.000000
      CHANNELS 3 Yrotation Xrotation Zrotation
      JOINT LeftShoulder
      {
       OFFSET 14.482500 0.000000 0.000000
       CHANNELS 3 Yrotation Xrotation Zrotation
       JOINT LeftElbow
       {
        OFFSET 0.000000 -31.707800 0.000000
        CHANNELS 3 Yrotation Xrotation Zrotation
        JOINT LeftWrist
        {
         OFFSET 0.000000 -25.659300 0.000000
         CHANNELS 3 Yrotation Xrotation Zrotation
         End Site
         {
          OFFSET 0.000000 -18.994300 0.000000
         }
        }
       }
      }
     }
    }
   }
  }
 }
 JOINT RightHip
 {
  OFFSET -8.365600 -0.032100 -0.003200
  CHANNELS 3 Yrotation Xrotation Zrotation
  JOINT RightKnee
  {
   OFFSET 0.000000 -43.980000 0.003100
   CHANNELS 3 Yrotation Xrotation Zrotation
   JOINT RightAnkle
   {
    OFFSET 0.000000 -42.882800 0.005200
    CHANNELS 3 Yrotation Xrotation Zrotation
    JOINT RightToe
    {
     OFFSET 0.000000 -4.915500 10.826300
     CHANNELS 3 Yrotation Xrotation Zrotation
     End Site
     {
      OFFSET 0.000000 -1.517500 6.175900
     }
    }
   }
  }
 }
 JOINT LeftHip
 {
  OFFSET 8.365600 -0.032100 -0.003200
  CHANNELS 3 Yrotation Xrotation Zrotation
  JOINT LeftKnee
  {
   OFFSET 0.000000 -43.980000 0.003100
   CHANNELS 3 Yrotation Xrotation Zrotation
   JOINT LeftAnkle
   {
    OFFSET 0.000000 -42.882800 0.005200
    CHANNELS 3 Yrotation Xrotation Zrotation
    JOINT LeftToe
    {
     OFFSET 0.000000 -4.915500 10.826300
     CHANNELS 3 Yrotation Xrotation Zrotation
     End Site
     {
      OFFSET 0.000000 -1.517500 6.175900
     }
    }
   }
  }
 }
}
MOTION
Frames: 15
Frame Time: 0.008333
3.727131 127.465447 34.421578 -173.485696 -50.656727 -5.872865 2.354745 23.471644 0.688226 0.323394 3.472671 0.039562 0.523513 5.599390 0.073710 1.917361 19.694200 0.506914 -5.372916 17.838817 -0.572724 -5.633333 -6.778290 0.628331 11.173949 -4.928107 -11.930194 37.445183 -38.422133 -62.721984 34.200881 -13.448530 -31.160692 3.658353 -46.021125 -53.385984 0.429191 4.073444 2.675641 1.384118 -2.297063 -1.723692 99.269871 -55.355146 -157.853070 1.733091 3.853637 -33.920283 0.246222 -25.411020 -4.400649 -149.227334 76.161057 -142.216474 -1.074546 -24.781528 1.820307 0.001823 0.009420 0.000828 -13.662129 -26.171797 3.685764 165.059649 80.695853 156.450765 -3.765313 -20.624947 -0.265329 -0.011168 0.000234 -0.005071
3.723486 127.465468 34.426538 -173.425560 -50.681281 -5.910062 2.368215 23.451576 0.696697 0.324671 3.466829 0.040529 0.500703 5.621545 0.077294 1.950524 19.649680 0.507914 -5.392024 17.872527 -0.587311 -5.651330 -6.740174 0.617090 11.136936 -4.857515 -11.887032 37.247322 -38.405232 -62.583716 34.352214 -13.759261 -31.411286 3.556096 -46.001272 -53.223718 0.478958 4.159310 2.664851 1.476477 -2.287516 -1.655853 99.155141 -55.286065 -157.877006 1.686078 3.769374 -33.893185 0.269584 -25.382214 -4.381480 -149.134930 76.165149 -142.130392 -1.105789 -24.758515 1.839691 0.004924 0.008766 0.002236 -13.625019 -26.156184 3.686695 165.028465 80.707265 156.424774 -3.805033 -20.600215 -0.239470 -0.012139 0.001382 -0.005512
3.718234 127.466230 34.431071 -173.353187 -50.711438 -5.948513 2.367036 23.440351 0.695548 0.325759 3.461563 0.041675 0.481259 5.640102 0.080357 1.993050 19.590974 0.509523 -5.421447 17.931645 -0.599412 -5.667074 -6.696444 0.603130 11.083533 -4.768738 -11.826216 37.055294 -38.383062 -62.451586 34.505941 -14.079603 -31.674893 3.462943 -45.980691 -53.083838 0.464795 4.238273 2.671084 1.551009 -2.272954 -1.588890 99.064215 -55.206281 -157.866750 1.672909 3.705625 -33.852556 0.289625 -25.348948 -4.363988 -149.005876 76.171807 -142.039791 -1.143559 -24.724728 1.897772 -0.004076 0.005805 -0.001851 -13.592181 -26.136694 3.676370 164.995859 80.717901 156.395314 -3.844266 -20.576024 -0.214536 -0.011747 0.002104 -0.005334
3.718534 127.464720 34.437732 -173.323536 -50.726233 -5.983741 2.397741 23.414037 0.724440 0.326167 3.457562 0.042572 0.490629 5.627367 0.080544 1.989432 19.588062 0.517912 -5.433972 17.971944 -0.616949 -5.677326 -6.651369 0.587114 11.042266 -4.709814 -11.785224 36.869424 -38.351313 -62.311533 34.655637 -14.407218 -31.949013 3.393082 -45.963545 -52.989826 0.442734 4.281757 2.680379 1.576409 -2.267133 -1.522937 99.020380 -55.105341 -157.838042 1.686650 3.696708 -33.795394 0.319959 -25.333841 -4.323764 -148.877141 76.158682 -141.898240 -1.169035 -24.710822 1.916989 0.007558 0.007330 0.003432 -13.552405 -26.129274 3.697653 165.057407 80.725350 156.479904 -3.867840 -20.561707 -0.204988 -0.004884 0.003307 -0.002217
3.714171 127.462964 34.444673 -173.293810 -50.742591 -5.993968 2.410123 23.396318 0.721313 0.312176 3.472267 0.045902 0.541257 5.557398 0.075516 1.954670 19.634908 0.529112 -5.440408 18.010079 -0.632568 -5.681274 -6.609069 0.571769 11.012060 -4.666396 -11.743124 36.688216 -38.295504 -62.178170 34.794137 -14.748503 -32.235121 3.348913 -45.950403 -52.947786 0.418589 4.306080 2.698173 1.538179 -2.271643 -1.453141 99.020841 -55.024171 -157.817360 1.729723 3.709610 -33.699897 0.362367 -25.319857 -4.304865 -148.706211 76.150647 -141.746502 -1.197709 -24.683537 1.963362 0.008717 0.009133 0.003958 -13.531294 -26.121431 3.698277 164.975276 80.735170 156.368371 -3.912963 -20.537850 -0.148488 -0.012820 0.006169 -0.005821
3.707499 127.466740 34.447245 -173.211062 -50.797581 -6.036884 2.381618 23.428058 0.703276 0.304652 3.482392 0.052712 0.546662 5.550774 0.068526 1.951731 19.638206 0.534748 -5.441348 18.043666 -0.649156 -5.677678 -6.571524 0.559502 10.993275 -4.640652 -11.704121 36.512018 -38.218858 -62.054747 34.921740 -15.107627 -32.532074 3.324714 -45.934374 -52.947878 0.394560 4.311143 2.720030 1.448335 -2.291901 -1.378241 98.974518 -55.012548 -157.833714 1.781458 3.672253 -33.494883 0.380649 -25.261215 -4.293638 -148.526944 76.140898 -141.589140 -1.236868 -24.654729 2.006466 0.020791 0.007352 0.009441 -13.531555 -26.074911 3.681113 164.952143 80.748206 156.319168 -3.924317 -20.517855 -0.122710 -0.029893 0.012891 -0.013575
3.704960 127.467156 34.452746 -173.151918 -50.830167 -6.084747 2.367655 23.443466 0.702357 0.311556 3.474950 0.056394 0.536947 5.568159 0.064342 1.948328 19.642942 0.548635 -5.438852 18.075812 -0.671830 -5.664212 -6.539841 0.551060 10.975856 -4.623277 -11.671012 36.348032 -38.136359 -61.946482 35.049983 -15.478485 -32.837592 3.309115 -45.909637 -52.967652 0.371613 4.305313 2.741805 1.324476 -2.329535 -1.302210 98.886925 -54.997342 -157.771046 1.819228 3.651133 -33.342207 0.402705 -25.229346 -4.243689 -148.270003 76.141392 -141.395258 -1.260660 -24.600622 2.103548 -0.007401 0.001504 -0.003361 -13.506586 -26.048662 3.680730 165.020301 80.758903 156.401846 -3.951804 -20.496854 -0.117569 -0.010092 0.009370 -0.004583
3.703233 127.467171 34.458692 -173.107774 -50.862803 -6.128124 2.355596 23.470416 0.709997 0.318660 3.466198 0.050871 0.530186 5.587693 0.059127 1.947466 19.639017 0.547420 -5.427350 18.104597 -0.669455 -5.640377 -6.505675 0.538066 10.947483 -4.606376 -11.615610 36.198992 -38.058487 -61.853638 35.189920 -15.856532 -33.152116 3.291033 -45.877133 -52.985452 0.357449 4.300239 2.779691 1.173926 -2.382638 -1.221459 98.774041 -54.974158 -157.657242 1.852090 3.645163 -33.252571 0.432124 -25.197589 -4.193216 -148.048738 76.139949 -141.206675 -1.293231 -24.557371 2.168436 -0.014216 0.001242 -0.006455 -13.479689 -26.023425 3.696385 165.133357 80.768284 156.529037 -3.968841 -20.481513 -0.112173 -0.001032 0.010583 -0.000469
3.702519 127.466353 34.465402 -173.060318 -50.891200 -6.182550 2.343948 23.495523 0.725306 0.323366 3.466581 0.042114 0.520412 5.604188 0.054540 1.923969 19.680643 0.514036 -5.379089 18.065228 -0.622832 -5.607864 -6.459238 0.513362 10.946278 -4.647769 -11.551448 36.039813 -37.984601 -61.753791 35.340720 -16.240080 -33.474158 3.264940 -45.843465 -52.987383 0.358646 4.252049 2.850661 1.026814 -2.453495 -1.150430 98.629006 -54.954422 -157.512891 1.873213 3.641057 -33.199719 0.457132 -25.169368 -4.137000 -147.824885 76.137196 -140.995484 -1.323211 -24.514916 2.213366 -0.012953 0.001695 -0.005881 -13.440706 -26.010775 3.738837 165.374010 80.779738 156.780384 -3.988677 -20.447785 -0.104887 0.007074 0.005068 0.003212
3.697901 127.466070 34.471644 -173.022917 -50.928292 -6.211407 2.330738 23.521805 0.697909 0.322341 3.480345 0.052188 0.516274 5.613512 0.058323 1.914885 19.696584 0.509082 -5.354635 18.085906 -0.628254 -5.573383 -6.452007 0.516701 10.952443 -4.669547 -11.529864 35.838509 -37.908177 -61.621070 35.496399 -16.632187 -33.805376 3.226226 -45.813687 -52.960932 0.327508 4.239668 2.898423 0.895028 -2.536579 -1.086337 98.468738 -54.936401 -157.351565 1.881656 3.639625 -33.168728 0.501031 -25.133537 -4.102464 -147.608668 76.134298 -140.789163 -1.356979 -24.474376 2.259500 -0.009186 0.002548 -0.004171 -13.434904 -25.982263 3.758802 165.334085 80.791980 156.686490 -4.035860 -20.414228 -0.028971 -0.005333 0.004906 -0.002422
3.695524 127.466675 34.477193 -172.999011 -50.973448 -6.245859 2.328852 23.562514 0.706595 0.320498 3.484554 0.040444 0.518806 5.617611 0.075001 1.911610 19.702052 0.507431 -5.349012 18.164069 -0.652041 -5.533191 -6.488666 0.535592 10.904883 -4.644969 -11.480642 35.700506 -37.840604 -61.540840 35.653133 -17.034023 -34.150410 3.173233 -45.784564 -52.901299 0.281994 4.245960 2.925561 0.774647 -2.620751 -1.014105 98.320588 -54.919380 -157.202209 1.885630 3.634159 -33.141615 0.548151 -25.090541 -4.057274 -147.439267 76.128289 -140.613140 -1.386652 -24.442968 2.289980 -0.002507 0.002447 -0.001138 -13.441061 -25.939707 3.774614 165.295782 80.797127 156.620157 -4.050496 -20.399426 -0.020217 -0.010046 0.008781 -0.004562
3.694429 127.465509 34.484119 -172.982023 -51.007060 -6.283797 2.321354 23.587916 0.707782 0.318941 3.494847 0.040144 0.516108 5.633254 0.074368 1.898593 19.725695 0.503360 -5.309719 18.162511 -0.636616 -5.497792 -6.493152 0.530819 10.838428 -4.624588 -11.395922 35.632313 -37.788308 -61.508927 35.811009 -17.443626 -34.511901 3.106666 -45.751961 -52.810275 0.258785 4.219070 2.957302 0.680618 -2.700668 -0.944569 98.203591 -54.900932 -157.087103 1.888801 3.627971 -33.111461 0.592730 -25.060629 -4.012677 -147.332140 76.113206 -140.471368 -1.409400 -24.427255 2.288949 0.014230 0.003418 0.006461 -13.429676 -25.914566 3.810050 165.350401 80.802232 156.664059 -4.075704 -20.379488 -0.008260 -0.008269 0.009289 -0.003755
3.690152 127.461062 34.493503 -172.970534 -51.019598 -6.300346 2.299590 23.587628 0.689478 0.317029 3.504024 0.040000 0.512742 5.647195 0.074258 1.884564 19.746951 0.500978 -5.271119 18.165081 -0.621760 -5.479723 -6.516022 0.521781 10.800863 -4.611257 -11.344665 35.506425 -37.737264 -61.416535 35.970570 -17.868815 -34.893184 3.025142 -45.716439 -52.686420 0.269955 4.194943 2.970103 0.578614 -2.767648 -0.868906 98.112527 -54.879827 -157.006307 1.889255 3.622357 -33.081082 0.629234 -25.055375 -3.983356 -147.181212 76.117901 -140.341408 -1.429783 -24.390918 2.330596 0.008785 0.006398 0.003989 -13.398898 -25.922081 3.830015 165.426902 80.805090 156.741064 -4.090424 -20.356017 -0.019709 -0.002209 0.007406 -0.001003
3.686758 127.460811 34.499353 -172.962811 -51.061577 -6.322941 2.250946 23.597265 0.653058 0.339676 3.527476 0.054386 0.509886 5.658244 0.074392 1.871936 19.763929 0.499795 -5.233968 18.175357 -0.605461 -5.410242 -6.459511 0.531473 10.799399 -4.606365 -11.318749 35.316843 -37.679380 -61.264733 36.124539 -18.319677 -35.296460 2.929097 -45.676420 -52.533808 0.231806 4.196958 2.988711 0.607153 -2.812866 -0.853700 98.019160 -54.888615 -156.997721 1.883635 3.612215 -33.050129 0.635936 -25.017332 -3.951475 -147.078437 76.143884 -140.281389 -1.446704 -24.351238 2.371662 -0.005494 0.007183 -0.002495 -13.374162 -25.894102 3.847719 165.479768 80.810330 156.786840 -4.104262 -20.334019 -0.013861 0.000771 0.005408 0.000350
3.689242 127.465575 34.501178 -172.978811 -51.136411 -6.364064 2.285248 23.663068 0.706492 0.313368 3.517114 0.040355 0.506796 5.666891 0.074682 1.859675 19.777259 0.499205 -5.202919 18.198660 -0.588839 -5.371843 -6.417534 0.550545 10.834963 -4.604884 -11.314069 35.067230 -37.610226 -61.059026 36.262536 -18.794347 -35.713114 2.823944 -45.633458 -52.369898 0.192037 4.212560 3.002665 0.578603 -2.887385 -0.788311 97.968959 -54.840874 -156.916879 1.884632 3.609330 -33.045124 0.684664 -24.953704 -3.867087 -146.893354 76.144941 -140.101261 -1.473641 -24.300855 2.425520 -0.006427 0.001759 -0.002918 -13.355125 -25.820139 3.893027 165.523207 80.814075 156.822551 -4.112770 -20.319546 0.001822 0.001373 0.002991 0.000623
